<mxfile host="app.diagrams.net" agent="Mozilla/5.0 (Windows NT 10.0; Win64; x64) AppleWebKit/537.36 (KHTML, like Gecko) Chrome/136.0.0.0 Safari/537.36" version="27.0.9">
  <diagram name="Page-1" id="LosMnAncZfk6xII_vwEb">
    <mxGraphModel dx="1089" dy="596" grid="1" gridSize="10" guides="1" tooltips="1" connect="1" arrows="1" fold="1" page="1" pageScale="1" pageWidth="1169" pageHeight="827" math="0" shadow="0">
      <root>
        <mxCell id="0" />
        <mxCell id="1" parent="0" />
        <mxCell id="SrYlIg3K-D3N34O9Nsy_-31" value="" style="rounded=0;whiteSpace=wrap;html=1;fillColor=#fff2cc;strokeColor=none;" vertex="1" parent="1">
          <mxGeometry x="500" y="110" width="340" height="270" as="geometry" />
        </mxCell>
        <mxCell id="SrYlIg3K-D3N34O9Nsy_-17" value="" style="rounded=0;whiteSpace=wrap;html=1;fillColor=#dae8fc;strokeColor=none;" vertex="1" parent="1">
          <mxGeometry x="230" y="414" width="170" height="270" as="geometry" />
        </mxCell>
        <mxCell id="SrYlIg3K-D3N34O9Nsy_-7" value="" style="rounded=0;whiteSpace=wrap;html=1;fillColor=#dae8fc;strokeColor=none;" vertex="1" parent="1">
          <mxGeometry x="230" y="110" width="170" height="270" as="geometry" />
        </mxCell>
        <mxCell id="SrYlIg3K-D3N34O9Nsy_-2" value="Player" style="html=1;whiteSpace=wrap;" vertex="1" parent="1">
          <mxGeometry x="70" y="210" width="110" height="50" as="geometry" />
        </mxCell>
        <mxCell id="SrYlIg3K-D3N34O9Nsy_-13" style="edgeStyle=orthogonalEdgeStyle;rounded=0;orthogonalLoop=1;jettySize=auto;html=1;entryX=0.5;entryY=1;entryDx=0;entryDy=0;" edge="1" parent="1" source="SrYlIg3K-D3N34O9Nsy_-3" target="SrYlIg3K-D3N34O9Nsy_-2">
          <mxGeometry relative="1" as="geometry" />
        </mxCell>
        <mxCell id="SrYlIg3K-D3N34O9Nsy_-3" value="CameraController" style="html=1;whiteSpace=wrap;" vertex="1" parent="1">
          <mxGeometry x="70" y="350" width="110" height="50" as="geometry" />
        </mxCell>
        <mxCell id="SrYlIg3K-D3N34O9Nsy_-4" value="PlayeeView" style="html=1;whiteSpace=wrap;" vertex="1" parent="1">
          <mxGeometry x="260" y="210" width="110" height="50" as="geometry" />
        </mxCell>
        <mxCell id="SrYlIg3K-D3N34O9Nsy_-5" value="PlayeeController" style="html=1;whiteSpace=wrap;" vertex="1" parent="1">
          <mxGeometry x="260" y="300" width="110" height="50" as="geometry" />
        </mxCell>
        <mxCell id="SrYlIg3K-D3N34O9Nsy_-11" style="edgeStyle=orthogonalEdgeStyle;rounded=0;orthogonalLoop=1;jettySize=auto;html=1;entryX=0.002;entryY=0.462;entryDx=0;entryDy=0;entryPerimeter=0;" edge="1" parent="1" source="SrYlIg3K-D3N34O9Nsy_-2" target="SrYlIg3K-D3N34O9Nsy_-7">
          <mxGeometry relative="1" as="geometry" />
        </mxCell>
        <mxCell id="SrYlIg3K-D3N34O9Nsy_-12" value="PlayerModel" style="html=1;whiteSpace=wrap;" vertex="1" parent="1">
          <mxGeometry x="260" y="130" width="110" height="50" as="geometry" />
        </mxCell>
        <mxCell id="SrYlIg3K-D3N34O9Nsy_-14" value="ProjectileProperties" style="html=1;whiteSpace=wrap;" vertex="1" parent="1">
          <mxGeometry x="260" y="434" width="110" height="50" as="geometry" />
        </mxCell>
        <mxCell id="SrYlIg3K-D3N34O9Nsy_-15" value="ProjectilePredictor" style="html=1;whiteSpace=wrap;" vertex="1" parent="1">
          <mxGeometry x="260" y="614" width="110" height="50" as="geometry" />
        </mxCell>
        <mxCell id="SrYlIg3K-D3N34O9Nsy_-16" value="ProjectileThrow" style="html=1;whiteSpace=wrap;" vertex="1" parent="1">
          <mxGeometry x="260" y="528" width="110" height="50" as="geometry" />
        </mxCell>
        <mxCell id="SrYlIg3K-D3N34O9Nsy_-18" value="Scoring" style="html=1;whiteSpace=wrap;" vertex="1" parent="1">
          <mxGeometry x="500" y="530" width="110" height="50" as="geometry" />
        </mxCell>
        <mxCell id="SrYlIg3K-D3N34O9Nsy_-19" value="GameController" style="html=1;whiteSpace=wrap;" vertex="1" parent="1">
          <mxGeometry x="500" y="470" width="110" height="50" as="geometry" />
        </mxCell>
        <mxCell id="SrYlIg3K-D3N34O9Nsy_-20" value="SceneLoding" style="html=1;whiteSpace=wrap;" vertex="1" parent="1">
          <mxGeometry x="500" y="600" width="110" height="50" as="geometry" />
        </mxCell>
        <mxCell id="SrYlIg3K-D3N34O9Nsy_-21" value="GameService&lt;div&gt;&lt;font style=&quot;font-size: 9px;&quot;&gt;&amp;lt;&amp;lt;service Locator&amp;gt;&amp;gt;&lt;/font&gt;&lt;/div&gt;" style="html=1;whiteSpace=wrap;" vertex="1" parent="1">
          <mxGeometry x="540" y="224" width="110" height="50" as="geometry" />
        </mxCell>
        <mxCell id="SrYlIg3K-D3N34O9Nsy_-27" style="edgeStyle=orthogonalEdgeStyle;rounded=0;orthogonalLoop=1;jettySize=auto;html=1;entryX=0.5;entryY=0;entryDx=0;entryDy=0;" edge="1" parent="1" source="SrYlIg3K-D3N34O9Nsy_-22" target="SrYlIg3K-D3N34O9Nsy_-21">
          <mxGeometry relative="1" as="geometry" />
        </mxCell>
        <mxCell id="SrYlIg3K-D3N34O9Nsy_-22" value="General singleton Monobehavior pattern" style="html=1;whiteSpace=wrap;" vertex="1" parent="1">
          <mxGeometry x="540" y="120" width="110" height="50" as="geometry" />
        </mxCell>
        <mxCell id="SrYlIg3K-D3N34O9Nsy_-28" style="edgeStyle=orthogonalEdgeStyle;rounded=0;orthogonalLoop=1;jettySize=auto;html=1;entryX=1;entryY=0.5;entryDx=0;entryDy=0;" edge="1" parent="1" source="SrYlIg3K-D3N34O9Nsy_-24" target="SrYlIg3K-D3N34O9Nsy_-21">
          <mxGeometry relative="1" as="geometry" />
        </mxCell>
        <mxCell id="SrYlIg3K-D3N34O9Nsy_-24" value="UI Service" style="html=1;whiteSpace=wrap;" vertex="1" parent="1">
          <mxGeometry x="720" y="150" width="110" height="50" as="geometry" />
        </mxCell>
        <mxCell id="SrYlIg3K-D3N34O9Nsy_-29" style="edgeStyle=orthogonalEdgeStyle;rounded=0;orthogonalLoop=1;jettySize=auto;html=1;" edge="1" parent="1" source="SrYlIg3K-D3N34O9Nsy_-25" target="SrYlIg3K-D3N34O9Nsy_-21">
          <mxGeometry relative="1" as="geometry" />
        </mxCell>
        <mxCell id="SrYlIg3K-D3N34O9Nsy_-25" value="Sound Service" style="html=1;whiteSpace=wrap;" vertex="1" parent="1">
          <mxGeometry x="720" y="224" width="110" height="50" as="geometry" />
        </mxCell>
        <mxCell id="SrYlIg3K-D3N34O9Nsy_-30" style="edgeStyle=orthogonalEdgeStyle;rounded=0;orthogonalLoop=1;jettySize=auto;html=1;entryX=1;entryY=0.5;entryDx=0;entryDy=0;" edge="1" parent="1" source="SrYlIg3K-D3N34O9Nsy_-26" target="SrYlIg3K-D3N34O9Nsy_-21">
          <mxGeometry relative="1" as="geometry" />
        </mxCell>
        <mxCell id="SrYlIg3K-D3N34O9Nsy_-26" value="Event Service" style="html=1;whiteSpace=wrap;" vertex="1" parent="1">
          <mxGeometry x="720" y="290" width="110" height="50" as="geometry" />
        </mxCell>
        <mxCell id="SrYlIg3K-D3N34O9Nsy_-32" value="&lt;b&gt;&lt;font style=&quot;font-size: 15px;&quot;&gt;Basket Brawl -UML&lt;/font&gt;&lt;/b&gt;" style="text;html=1;align=center;verticalAlign=middle;resizable=0;points=[];autosize=1;strokeColor=none;fillColor=none;" vertex="1" parent="1">
          <mxGeometry x="30" y="58" width="160" height="30" as="geometry" />
        </mxCell>
        <mxCell id="SrYlIg3K-D3N34O9Nsy_-33" value="MVC" style="text;html=1;align=center;verticalAlign=middle;resizable=0;points=[];autosize=1;strokeColor=none;fillColor=none;" vertex="1" parent="1">
          <mxGeometry x="230" y="80" width="50" height="30" as="geometry" />
        </mxCell>
        <mxCell id="SrYlIg3K-D3N34O9Nsy_-34" value="Service Locator" style="text;html=1;align=center;verticalAlign=middle;resizable=0;points=[];autosize=1;strokeColor=none;fillColor=none;" vertex="1" parent="1">
          <mxGeometry x="490" y="80" width="110" height="30" as="geometry" />
        </mxCell>
      </root>
    </mxGraphModel>
  </diagram>
</mxfile>
